HIERARCHY
ROOT root
{
	OFFSET 0.000000 0.000000 0.000000
	CHANNELS 6 Xposition Yposition Zposition Zrotation Yrotation Xrotation
	JOINT lhip
	{
		OFFSET 0.058581 -0.082280 -0.017664
		CHANNELS 3 Zrotation Yrotation Xrotation
		JOINT lknee
		{
			OFFSET 0.043451 -0.386469 0.008037
			CHANNELS 3 Zrotation Yrotation Xrotation
			JOINT lankle
			{
				OFFSET -0.014790 -0.426874 -0.037428
				CHANNELS 3 Zrotation Yrotation Xrotation
				JOINT ltoe
				{
					OFFSET 0.041054 -0.060286 0.122042
					CHANNELS 3 Zrotation Yrotation Xrotation
					End Site
					{
						OFFSET 0.000000 0.000000 0.000000
					}
				}
			}
		}
	}
	JOINT rhip
	{
		OFFSET -0.060310 -0.090513 -0.013543
		CHANNELS 3 Zrotation Yrotation Xrotation
		JOINT rknee
		{
			OFFSET -0.043257 -0.383688 -0.004843
			CHANNELS 3 Zrotation Yrotation Xrotation
			JOINT rankle
			{
				OFFSET 0.019056 -0.420046 -0.034562
				CHANNELS 3 Zrotation Yrotation Xrotation
				JOINT rtoe
				{
					OFFSET -0.034840 -0.062106 0.130323
					CHANNELS 3 Zrotation Yrotation Xrotation
					End Site
					{
						OFFSET 0.000000 0.000000 0.000000
					}
				}
			}
		}
	}
	JOINT lowerback
	{
		OFFSET 0.004439 0.124404 -0.038385
		CHANNELS 3 Zrotation Yrotation Xrotation
		JOINT upperback
		{
			OFFSET 0.004488 0.137956 0.026820
			CHANNELS 3 Zrotation Yrotation Xrotation
			JOINT chest
			{
				OFFSET -0.002265 0.056032 0.002855
				CHANNELS 3 Zrotation Yrotation Xrotation
				JOINT lowerneck
				{
					OFFSET -0.013390 0.211636 -0.033468
					CHANNELS 3 Zrotation Yrotation Xrotation
					JOINT upperneck
					{
						OFFSET 0.010113 0.088937 0.050410
						CHANNELS 3 Zrotation Yrotation Xrotation
						End Site
						{
							OFFSET 0.000000 0.000000 0.000000
						}
					}
				}
				JOINT lclavicle
				{
					OFFSET 0.071702 0.114000 -0.018898
					CHANNELS 3 Zrotation Yrotation Xrotation
					JOINT lshoulder
					{
						OFFSET 0.122921 0.045205 -0.019046
						CHANNELS 3 Zrotation Yrotation Xrotation
						JOINT lelbow
						{
							OFFSET 0.255332 -0.015649 -0.022946
							CHANNELS 3 Zrotation Yrotation Xrotation
							JOINT lwrist
							{
								OFFSET 0.265709 0.012698 -0.007375
								CHANNELS 3 Zrotation Yrotation Xrotation
								End Site
								{
									OFFSET 0.000000 0.000000 0.000000
								}
							}
						}
					}
				}
				JOINT rclavicle
				{
					OFFSET -0.082954 0.112472 -0.023707
					CHANNELS 3 Zrotation Yrotation Xrotation
					JOINT rshoulder
					{
						OFFSET -0.113228 0.046853 -0.008472
						CHANNELS 3 Zrotation Yrotation Xrotation
						JOINT relbow
						{
							OFFSET -0.260127 -0.014369 -0.031269
							CHANNELS 3 Zrotation Yrotation Xrotation
							JOINT rwrist
							{
								OFFSET -0.269108 0.006794 -0.006027
								CHANNELS 3 Zrotation Yrotation Xrotation
								End Site
								{
									OFFSET 0.000000 0.000000 0.000000
								}
							}
						}
					}
				}
			}
		}
	}
}
MOTION
Frames: 11
Frame Time: 0.033333
-0.539123 0.615553 0.963088 81.286007 -5.832564 91.243631 -7.927467 -3.265815 4.814109 -6.945947 -10.261458 18.342338 4.410658 8.558038 -20.720852 0.000000 -0.000000 0.000000 -7.664154 -4.501608 -34.583723 -4.604333 -19.398855 55.628573 2.397858 -13.911300 -16.748641 0.000000 -0.000000 0.000000 1.953626 -2.324155 8.528353 1.067266 3.459006 -0.032567 -2.098789 0.104132 2.419620 2.145177 -6.802167 -1.468790 -6.546585 -6.616609 8.427762 -22.967136 3.166399 2.501849 -56.960956 -1.571424 25.088942 -143.498065 -82.364887 174.289798 2.593856 -8.277097 -16.561117 21.023500 9.602903 -4.400515 42.528307 25.131941 3.039156 -47.461910 39.126328 -52.049510 19.935804 12.746667 -28.852603 
-0.531887 0.622952 0.962110 79.156461 -5.560134 92.166971 -8.266285 -2.873091 4.129482 -7.180689 -9.039456 18.520077 4.358284 8.154481 -21.071075 0.000000 -0.000000 0.000000 -6.060847 -7.326262 -34.427999 -5.391521 -26.164147 49.233918 1.455728 -16.786065 -16.935720 0.000000 -0.000000 0.000000 2.447996 -2.476419 7.159373 0.706999 3.705313 0.527247 -1.846530 0.264459 2.179604 1.563575 -8.486363 -0.963964 -6.173650 -7.021141 8.066964 -23.104197 2.843531 2.530660 -57.051735 -2.309967 25.673175 -145.507387 -82.434868 176.731367 1.484874 -8.579078 -16.471593 20.648549 10.702461 -3.518792 39.288928 26.516242 0.608656 -42.630361 36.942834 -49.711425 20.372487 13.382337 -29.936446 
-0.522257 0.630017 0.960801 77.000927 -5.719642 92.221022 -9.189893 -2.538629 4.192906 -7.617786 -7.624190 19.200024 4.445461 8.189264 -20.896285 0.000000 -0.000000 0.000000 -4.935533 -9.299220 -32.966387 -5.557595 -30.577644 44.447307 0.618332 -19.639766 -17.445450 0.000000 -0.000000 0.000000 2.551813 -1.664813 7.144164 0.474132 4.085007 0.005124 -1.592777 0.009842 2.741683 1.165757 -9.907478 -1.261401 -6.151165 -7.451943 8.288705 -22.993132 2.591215 2.664996 -57.754579 -2.946456 25.961619 -144.794064 -82.312187 176.604016 1.192319 -8.729114 -16.103705 19.909054 11.566793 -3.127996 37.153920 27.423434 -1.164108 -39.779204 34.890543 -48.298216 20.848771 13.319563 -29.505606 
-0.512046 0.635530 0.958900 74.361295 -5.835627 92.258599 -9.964884 -1.858547 3.850118 -7.978655 -5.407357 20.579554 4.024022 7.852339 -20.339742 0.000000 -0.000000 0.000000 -3.946282 -9.448636 -31.975804 -6.098254 -29.257158 43.015390 0.492333 -18.784436 -18.922110 0.000000 -0.000000 0.000000 2.857729 -0.983177 7.297303 0.148129 4.426324 -0.077219 -1.690021 0.469048 3.008701 1.218846 -10.477969 -2.050162 -6.272430 -8.288443 8.482987 -22.793695 2.454945 2.082770 -58.215009 -2.632957 26.152387 -145.974697 -81.694834 178.130098 0.789987 -9.022151 -16.018459 19.646622 12.458128 -3.213031 35.359451 28.490874 -2.984557 -38.098759 32.965530 -47.397126 21.992492 12.799738 -28.007906 
-0.500217 0.640855 0.957110 71.979610 -5.840091 92.319222 -10.777340 -1.715028 3.168847 -8.513231 -3.354577 22.571340 3.801441 8.314192 -19.270053 0.000000 -0.000000 0.000000 -4.263255 -7.463160 -31.051714 -4.397448 -24.929621 42.077496 0.443376 -18.518705 -20.508301 0.000000 -0.000000 0.000000 3.326778 -0.800810 7.256539 0.165770 5.083466 -0.061348 -1.943573 1.099780 3.302872 1.319797 -11.283045 -2.925847 -6.873592 -8.566754 8.649462 -23.266231 2.752894 1.650796 -58.223877 -2.268614 26.553537 -147.654968 -81.277343 -179.773371 0.289121 -9.582570 -16.644222 19.741489 13.186011 -3.419115 32.881456 29.678476 -4.665481 -36.911701 30.191651 -47.311885 24.267579 12.728404 -27.547393 
-0.488150 0.644818 0.955824 70.639762 -5.267238 92.695645 -10.166746 -1.253240 0.906519 -9.434310 -0.754967 26.836572 2.863003 7.303780 -17.647582 0.000000 -0.000000 0.000000 -4.109892 -6.516540 -29.620060 -3.281010 -23.651544 39.976167 -0.371459 -17.632820 -22.321236 0.000000 -0.000000 0.000000 4.264414 -0.714423 7.095081 0.394625 5.342621 -0.410807 -2.025386 1.578172 3.363307 1.324020 -11.989570 -3.241773 -7.221193 -8.770998 8.348061 -23.636748 3.319158 1.375366 -58.598957 -1.637851 26.873359 -147.009972 -81.088151 -179.815513 -0.451565 -10.252785 -17.490660 19.671400 13.330108 -3.679068 29.887169 30.512121 -6.961112 -34.784560 27.865641 -45.782771 26.903158 13.271314 -28.249452 
-0.477210 0.647310 0.954525 69.598137 -4.733021 92.974191 -8.337277 0.376931 -2.746770 -10.676894 2.166002 33.788930 0.470749 3.772429 -15.048496 0.000000 -0.000000 0.000000 -2.874601 -6.959681 -28.122272 -3.333958 -23.532378 37.259367 -1.906182 -17.491804 -23.890713 0.000000 -0.000000 0.000000 4.534658 -0.059208 7.443230 0.743062 5.521932 -1.137540 -1.604974 1.519822 3.510597 1.368362 -13.391710 -3.642642 -6.733497 -8.784074 7.839111 -23.750227 3.740803 1.187679 -59.304102 -0.948684 26.554384 -142.416749 -80.956987 176.395957 -1.132075 -10.607702 -18.387651 18.942636 13.357831 -4.108468 26.935186 30.369558 -9.583797 -32.447895 26.790920 -43.631413 30.072997 13.903914 -28.414025 
-0.468084 0.650512 0.951894 68.522317 -4.837769 93.020011 -6.233045 1.436108 -6.608555 -13.082632 2.830823 41.557306 -2.124328 -1.069716 -12.969204 0.000000 -0.000000 0.000000 -2.725221 -7.334841 -28.604424 -3.296880 -21.055882 38.226459 -2.717250 -17.789924 -24.109905 0.000000 -0.000000 0.000000 3.979735 0.542574 8.013559 0.960533 5.617393 -1.226588 -1.400983 1.265244 3.780111 1.866628 -14.263609 -4.845707 -6.015011 -8.468619 7.642315 -23.921867 3.945130 0.735264 -59.434719 -0.489158 26.257636 -139.613738 -81.246292 173.213731 -0.628824 -10.387614 -19.426147 18.192936 13.735507 -4.694121 24.266264 30.379870 -11.407705 -30.830657 25.557299 -43.639553 32.611918 14.183609 -27.684319 
-0.458493 0.652494 0.949517 68.369782 -4.457502 92.286052 -3.499629 1.345405 -8.950377 -14.878084 1.571340 48.062868 -2.881167 -2.184955 -14.214025 0.000000 -0.000000 0.000000 -3.475674 -7.094706 -28.100957 -2.639829 -21.117936 39.872827 -2.562004 -17.914112 -24.907689 0.000000 -0.000000 0.000000 3.974674 0.274777 9.136118 1.105631 5.392979 -0.716272 -1.429788 1.037312 3.489607 2.548074 -14.567750 -5.477311 -5.545851 -8.128969 7.465060 -24.619801 3.529880 0.893739 -58.857409 -0.185321 26.037420 -139.290429 -82.509012 171.518196 0.361596 -10.032172 -20.827046 18.014434 14.453468 -4.942671 21.520716 30.290541 -13.247693 -29.516667 24.044675 -44.188371 34.434856 14.452669 -26.983856 
-0.450810 0.654303 0.946769 67.239190 -4.671543 92.171381 -1.292890 0.797183 -11.101481 -12.173957 2.731663 51.875320 -0.295771 3.589685 -17.080062 0.000000 -0.000000 0.000000 -3.865867 -7.725226 -28.115361 -1.627526 -19.796709 40.571666 -3.285644 -18.432043 -26.009038 0.000000 -0.000000 0.000000 3.298722 -0.060371 9.705515 0.604512 5.020967 -0.323888 -1.456279 1.517574 3.174806 3.306191 -14.512356 -6.226968 -5.176987 -7.555047 8.543742 -25.285518 3.398770 1.030763 -57.485742 -0.524563 25.698570 -134.869833 -83.806786 165.624081 0.869984 -8.949057 -22.999467 18.683738 15.328544 -4.346896 18.439153 30.670824 -14.847518 -27.698299 21.931433 -44.444068 35.199816 14.959309 -27.366867 
-0.443569 0.656244 0.944768 65.575053 -5.273261 92.407004 1.345162 0.154147 -12.296442 -8.255448 3.297300 51.990855 2.501260 7.492676 -19.707024 0.000000 -0.000000 0.000000 -4.502300 -7.925423 -28.779888 -0.914074 -18.115561 41.620609 -3.113089 -18.938697 -26.481070 0.000000 -0.000000 0.000000 2.038250 0.208409 9.944064 0.231695 5.368598 -0.147307 -1.363219 1.392363 2.964567 3.741888 -14.433353 -6.279158 -5.033187 -6.933940 8.976716 -26.099736 3.126491 1.400946 -56.180969 -1.591993 25.465881 -127.101857 -85.678810 156.629816 0.033484 -7.346180 -22.897161 19.550768 15.756393 -4.119372 15.486042 31.167224 -16.074286 -25.323147 19.595922 -45.302489 35.106875 14.576930 -26.719394 
